<svg xmlns="http://www.w3.org/2000/svg" viewBox="9.43 12.68 233.56 74.72" fill="none" role="img" aria-label="ARC">
  <title>ARC</title>
  <path d="M11.60 79.00 Q54.38 -37.00 97.15 79.00" stroke="#ffffff" stroke-width="4.35" stroke-linecap="round"></path>
  <circle cx="54.38" cy="61.60" r="4.35" fill="#ffffff"></circle>
  <path d="M125.70 86.40L121.26 86.40L121.26 13.67L143.67 13.67Q150.56 13.67 155.53 16.37Q160.50 19.07 163.16 23.85Q165.83 28.62 165.83 34.94L165.83 34.94Q165.83 41.19 163.16 45.93Q160.50 50.68 155.57 53.34L155.57 53.34Q153.83 54.26 151.91 54.87L151.91 54.87L169.02 86.40L163.91 86.40L147.40 55.79Q145.62 56.00 143.70 56.00L143.70 56.00L125.70 56.00L125.70 86.40ZM125.70 17.79L125.70 51.85L143.60 51.85Q149.21 51.85 153.19 49.75Q157.16 47.66 159.29 43.88Q161.42 40.09 161.42 34.94L161.42 34.94Q161.42 29.76 159.29 25.91Q157.16 22.05 153.17 19.92Q149.17 17.79 143.56 17.79L143.56 17.79L125.70 17.79Z M242.98 36.40L242.98 36.40L238.44 36.40Q237.73 32.71 235.77 29.24Q233.82 25.78 230.75 22.99Q227.68 20.21 223.63 18.57Q219.58 16.94 214.68 16.94L214.68 16.94Q207.51 16.94 201.49 20.76Q195.47 24.57 191.86 31.96Q188.26 39.35 188.26 50.04L188.26 50.04Q188.26 60.80 191.86 68.18Q195.47 75.57 201.49 79.35Q207.51 83.13 214.68 83.13L214.68 83.13Q219.58 83.13 223.63 81.52Q227.68 79.90 230.75 77.11Q233.82 74.33 235.77 70.85Q237.73 67.37 238.44 63.67L238.44 63.67L242.98 63.67Q242.20 68.08 239.98 72.30Q237.76 76.53 234.16 79.95Q230.55 83.38 225.67 85.39Q220.79 87.39 214.68 87.39L214.68 87.39Q205.59 87.39 198.66 82.76Q191.74 78.13 187.81 69.71Q183.89 61.29 183.89 50.04L183.89 50.04Q183.89 38.78 187.81 30.36Q191.74 21.95 198.66 17.31Q205.59 12.68 214.68 12.68L214.68 12.68Q220.79 12.68 225.67 14.68Q230.55 16.69 234.16 20.08Q237.76 23.47 239.98 27.70Q242.20 31.93 242.98 36.40Z" fill="#ffffff"></path>
</svg>