<svg xmlns="http://www.w3.org/2000/svg" viewBox="6.04 52.56 449.70 149.43" fill="#ffffff" role="img" aria-label="ARC">
  <title>ARC</title>
  <path d="M32.03 153.48L15.41 200L6.04 200L58.52 54.55L68.75 54.55L121.24 200L111.86 200L95.24 153.48L32.03 153.48ZM34.94 145.24L92.33 145.24L63.99 65.98L63.28 65.98L34.94 145.24Z M193.17 200L184.30 200L184.30 54.55L229.11 54.55Q242.89 54.55 252.83 59.94Q262.78 65.34 268.10 74.89Q273.43 84.45 273.43 97.09L273.43 97.09Q273.43 109.59 268.10 119.07Q262.78 128.55 252.90 133.88L252.90 133.88Q249.42 135.72 245.59 136.93L245.59 136.93L279.82 200L269.59 200L236.57 138.78Q233.02 139.20 229.18 139.20L229.18 139.20L193.17 139.20L193.17 200ZM193.17 62.78L193.17 130.89L228.97 130.89Q240.19 130.89 248.14 126.70Q256.10 122.51 260.36 114.95Q264.62 107.39 264.62 97.09L264.62 97.09Q264.62 86.72 260.36 79.01Q256.10 71.31 248.11 67.05Q240.12 62.78 228.90 62.78L228.90 62.78L193.17 62.78Z M455.74 100.00L455.74 100.00L446.64 100.00Q445.22 92.61 441.32 85.69Q437.41 78.76 431.27 73.19Q425.13 67.61 417.03 64.35Q408.93 61.08 399.13 61.08L399.13 61.08Q384.78 61.08 372.75 68.71Q360.71 76.35 353.50 91.12Q346.29 105.89 346.29 127.27L346.29 127.27Q346.29 148.79 353.50 163.57Q360.71 178.34 372.75 185.90Q384.78 193.47 399.13 193.47L399.13 193.47Q408.93 193.47 417.03 190.23Q425.13 187.00 431.27 181.43Q437.41 175.85 441.32 168.89Q445.22 161.93 446.64 154.55L446.64 154.55L455.74 154.55Q454.17 163.35 449.73 171.80Q445.30 180.26 438.09 187.11Q430.88 193.96 421.11 197.98Q411.35 201.99 399.13 201.99L399.13 201.99Q380.95 201.99 367.10 192.72Q353.25 183.45 345.40 166.62Q337.55 149.79 337.55 127.27L337.55 127.27Q337.55 104.76 345.40 87.93Q353.25 71.09 367.10 61.83Q380.95 52.56 399.13 52.56L399.13 52.56Q411.35 52.56 421.11 56.57Q430.88 60.58 438.09 67.37Q445.30 74.15 449.73 82.60Q454.17 91.05 455.74 100.00Z"></path>
</svg>